<?xml version="1.0" standalone="no"?>
<!DOCTYPE svg PUBLIC "-//W3C//DTD SVG 20010904//EN"
 "http://www.w3.org/TR/2001/REC-SVG-20010904/DTD/svg10.dtd">
<svg version="1.0" xmlns="http://www.w3.org/2000/svg"
 width="200.000000pt" height="200.000000pt" viewBox="0 0 200.000000 200.000000"
 preserveAspectRatio="xMidYMid meet">
<metadata>
Created by potrace 1.14, written by Peter Selinger 2001-2017
</metadata>
<g transform="translate(0.000000,200.000000) scale(0.100000,-0.100000)"
fill="#000000" stroke="none">
<path d="M130 1660 l0 -210 210 0 210 0 0 210 0 210 -210 0 -210 0 0 -210z
m360 0 l0 -150 -150 0 -150 0 0 150 0 150 150 0 150 0 0 -150z"/>
<path d="M250 1660 l0 -90 90 0 90 0 0 90 0 90 -90 0 -90 0 0 -90z"/>
<path d="M730 1840 l0 -30 -60 0 -60 0 0 -60 0 -60 30 0 c27 0 30 -3 30 -30 0
-27 -3 -30 -30 -30 l-30 0 0 -120 0 -120 -60 0 -60 0 0 -30 0 -30 60 0 60 0 0
30 c0 27 3 30 30 30 l30 0 0 90 0 90 30 0 30 0 0 -90 0 -90 30 0 30 0 0 -90 0
-90 -60 0 -60 0 0 -30 c0 -27 -3 -30 -30 -30 -27 0 -30 -3 -30 -30 0 -27 -3
-30 -30 -30 -27 0 -30 3 -30 30 0 27 -3 30 -30 30 -27 0 -30 3 -30 30 l0 30
60 0 60 0 0 30 0 30 -60 0 -60 0 0 -30 c0 -27 -3 -30 -30 -30 -27 0 -30 -3
-30 -30 0 -27 -3 -30 -30 -30 -27 0 -30 -3 -30 -30 0 -27 -3 -30 -30 -30 -27
0 -30 -3 -30 -30 0 -27 3 -30 30 -30 27 0 30 -3 30 -30 0 -27 -3 -30 -30 -30
l-30 0 0 -60 0 -60 -30 0 -30 0 0 -90 0 -90 90 0 90 0 0 30 0 30 60 0 60 0 0
-30 c0 -27 -3 -30 -30 -30 -27 0 -30 -3 -30 -30 0 -27 3 -30 30 -30 27 0 30 3
30 30 l0 30 60 0 60 0 0 -30 c0 -27 -3 -30 -30 -30 l-30 0 0 -60 0 -60 30 0
c27 0 30 -3 30 -30 0 -27 3 -30 30 -30 27 0 30 -3 30 -30 l0 -30 -60 0 -60 0
0 -30 0 -30 60 0 60 0 0 -30 0 -30 -60 0 -60 0 0 -60 0 -60 30 0 c27 0 30 3
30 30 0 27 3 30 30 30 27 0 30 3 30 30 0 27 3 30 30 30 27 0 30 3 30 30 0 27
3 30 30 30 l30 0 0 -60 0 -60 -30 0 c-27 0 -30 -3 -30 -30 l0 -30 240 0 240 0
0 30 c0 27 -3 30 -30 30 -27 0 -30 3 -30 30 l0 30 60 0 60 0 0 -60 0 -60 30 0
30 0 0 60 0 60 30 0 c27 0 30 3 30 30 0 27 3 30 30 30 27 0 30 3 30 30 0 27 3
30 30 30 l30 0 0 -90 0 -90 -30 0 c-27 0 -30 -3 -30 -30 l0 -30 60 0 60 0 0
60 0 60 60 0 60 0 0 -60 0 -60 30 0 30 0 0 60 0 60 30 0 c27 0 30 3 30 30 0
27 -3 30 -30 30 -27 0 -30 3 -30 30 l0 30 -90 0 -90 0 0 30 0 30 60 0 60 0 0
30 c0 27 3 30 30 30 27 0 30 -3 30 -30 0 -27 3 -30 30 -30 27 0 30 3 30 30 0
27 -3 30 -30 30 -27 0 -30 3 -30 30 0 27 3 30 30 30 27 0 30 3 30 30 l0 30
-60 0 -60 0 0 30 0 30 60 0 60 0 0 90 0 90 -30 0 -30 0 0 60 0 60 30 0 c27 0
30 3 30 30 l0 30 -120 0 -120 0 0 -60 0 -60 30 0 c27 0 30 3 30 30 0 27 3 30
30 30 l30 0 0 -60 0 -60 30 0 c27 0 30 -3 30 -30 0 -27 -3 -30 -30 -30 l-30 0
0 -60 0 -60 -30 0 -30 0 0 -60 0 -60 30 0 c27 0 30 -3 30 -30 l0 -30 -60 0
-60 0 0 90 0 90 -60 0 -60 0 0 30 c0 27 3 30 30 30 l30 0 0 90 0 90 -30 0
c-27 0 -30 3 -30 30 0 27 -3 30 -30 30 l-30 0 0 60 0 60 30 0 c27 0 30 -3 30
-30 0 -27 3 -30 30 -30 27 0 30 3 30 30 0 27 -3 30 -30 30 -27 0 -30 3 -30 30
l0 30 60 0 60 0 0 -30 c0 -27 3 -30 30 -30 27 0 30 3 30 30 0 27 3 30 30 30
27 0 30 -3 30 -30 l0 -30 60 0 60 0 0 30 c0 27 -3 30 -30 30 l-30 0 0 60 0 60
30 0 c27 0 30 3 30 30 0 27 -3 30 -30 30 -27 0 -30 3 -30 30 l0 30 -60 0 -60
0 0 -30 c0 -27 -3 -30 -30 -30 -27 0 -30 3 -30 30 l0 30 -90 0 -90 0 0 -90 0
-90 30 0 c27 0 30 -3 30 -30 l0 -30 -120 0 -120 0 0 30 0 30 60 0 60 0 0 60 0
60 -30 0 c-27 0 -30 -3 -30 -30 0 -27 -3 -30 -30 -30 -27 0 -30 3 -30 30 l0
30 -60 0 -60 0 0 30 0 30 90 0 90 0 0 30 c0 27 3 30 30 30 27 0 30 3 30 30 0
27 -3 30 -30 30 -27 0 -30 3 -30 30 0 27 -3 30 -30 30 -27 0 -30 3 -30 30 l0
30 -60 0 -60 0 0 30 c0 27 3 30 30 30 27 0 30 3 30 30 0 27 3 30 30 30 27 0
30 -3 30 -30 l0 -30 60 0 60 0 0 60 0 60 -30 0 c-27 0 -30 3 -30 30 l0 30 -90
0 -90 0 0 -30 c0 -27 -3 -30 -30 -30 -27 0 -30 3 -30 30 l0 30 -90 0 -90 0 0
-60 0 -60 30 0 c27 0 30 3 30 30 0 27 3 30 30 30 l30 0 0 -60 0 -60 -30 0 -30
0 0 -60 0 -60 30 0 c27 0 30 -3 30 -30 0 -27 -3 -30 -30 -30 l-30 0 0 -60 0
-60 -60 0 -60 0 0 30 c0 27 3 30 30 30 l30 0 0 120 0 120 -30 0 -30 0 0 -120
0 -120 -30 0 -30 0 0 90 0 90 -30 0 c-27 0 -30 3 -30 30 0 27 -3 30 -30 30
-27 0 -30 3 -30 30 l0 30 60 0 60 0 0 60 0 60 -30 0 c-27 0 -30 -3 -30 -30z
m600 -60 c0 -27 -3 -30 -30 -30 -27 0 -30 3 -30 30 0 27 3 30 30 30 27 0 30
-3 30 -30z m-240 -150 l0 -60 30 0 c27 0 30 -3 30 -30 0 -27 3 -30 30 -30 27
0 30 -3 30 -30 0 -27 -3 -30 -30 -30 -27 0 -30 -3 -30 -30 0 -27 -3 -30 -30
-30 -27 0 -30 -3 -30 -30 l0 -30 -60 0 -60 0 0 30 c0 27 3 30 30 30 l30 0 0
60 0 60 30 0 c27 0 30 3 30 30 0 27 -3 30 -30 30 l-30 0 0 60 0 60 30 0 30 0
0 -60z m240 -150 c0 -27 -3 -30 -30 -30 -27 0 -30 3 -30 30 0 27 3 30 30 30
27 0 30 -3 30 -30z m300 -210 l0 -60 30 0 c27 0 30 -3 30 -30 0 -27 -3 -30
-30 -30 -27 0 -30 3 -30 30 l0 30 -60 0 -60 0 0 60 0 60 60 0 60 0 0 -60z
m180 30 l0 -30 -60 0 -60 0 0 30 0 30 60 0 60 0 0 -30z m-660 -60 c0 -27 3
-30 30 -30 27 0 30 3 30 30 0 27 3 30 30 30 27 0 30 -3 30 -30 0 -27 -3 -30
-30 -30 -27 0 -30 -3 -30 -30 0 -27 3 -30 30 -30 l30 0 0 -60 0 -60 30 0 c27
0 30 3 30 30 0 27 3 30 30 30 27 0 30 -3 30 -30 0 -27 -3 -30 -30 -30 -27 0
-30 -3 -30 -30 0 -27 -3 -30 -30 -30 -27 0 -30 3 -30 30 0 27 -3 30 -30 30
l-30 0 0 60 0 60 -30 0 -30 0 0 -60 0 -60 -30 0 c-27 0 -30 -3 -30 -30 0 -27
3 -30 30 -30 27 0 30 -3 30 -30 0 -27 -3 -30 -30 -30 -27 0 -30 3 -30 30 0 27
-3 30 -30 30 l-30 0 0 -60 0 -60 30 0 c27 0 30 -3 30 -30 0 -27 3 -30 30 -30
27 0 30 3 30 30 0 27 3 30 30 30 27 0 30 3 30 30 0 27 3 30 30 30 27 0 30 -3
30 -30 l0 -30 90 0 90 0 0 30 c0 27 -3 30 -30 30 -27 0 -30 3 -30 30 0 27 3
30 30 30 27 0 30 -3 30 -30 0 -27 3 -30 30 -30 27 0 30 -3 30 -30 0 -27 -3
-30 -30 -30 -27 0 -30 -3 -30 -30 l0 -30 -60 0 -60 0 0 -30 0 -30 60 0 60 0 0
-30 0 -30 -60 0 -60 0 0 -30 c0 -27 -3 -30 -30 -30 -27 0 -30 -3 -30 -30 0
-27 3 -30 30 -30 l30 0 0 -90 0 -90 60 0 60 0 0 -30 c0 -27 -3 -30 -30 -30
-27 0 -30 -3 -30 -30 0 -27 -3 -30 -30 -30 l-30 0 0 60 0 60 -30 0 c-27 0 -30
-3 -30 -30 l0 -30 -60 0 -60 0 0 -30 c0 -27 -3 -30 -30 -30 -27 0 -30 -3 -30
-30 l0 -30 -60 0 -60 0 0 30 c0 27 -3 30 -30 30 l-30 0 0 60 0 60 30 0 c27 0
30 -3 30 -30 0 -27 3 -30 30 -30 l30 0 0 60 0 60 -30 0 c-27 0 -30 3 -30 30 0
27 -3 30 -30 30 -27 0 -30 -3 -30 -30 0 -27 -3 -30 -30 -30 -27 0 -30 -3 -30
-30 0 -27 -3 -30 -30 -30 -27 0 -30 3 -30 30 0 27 -3 30 -30 30 l-30 0 0 60 0
60 60 0 60 0 0 30 c0 27 -3 30 -30 30 -27 0 -30 3 -30 30 0 27 -3 30 -30 30
-27 0 -30 3 -30 30 l0 30 60 0 60 0 0 -30 c0 -27 3 -30 30 -30 27 0 30 3 30
30 0 27 3 30 30 30 27 0 30 3 30 30 0 27 3 30 30 30 27 0 30 3 30 30 l0 30
-60 0 -60 0 0 30 c0 27 -3 30 -30 30 l-30 0 0 -60 0 -60 -30 0 c-27 0 -30 3
-30 30 l0 30 -60 0 -60 0 0 -60 0 -60 -60 0 -60 0 0 30 c0 27 -3 30 -30 30
-27 0 -30 3 -30 30 0 27 3 30 30 30 27 0 30 3 30 30 0 27 -3 30 -30 30 -27 0
-30 3 -30 30 0 27 -3 30 -30 30 -27 0 -30 3 -30 30 0 27 -3 30 -30 30 -27 0
-30 3 -30 30 0 27 3 30 30 30 27 0 30 3 30 30 0 27 3 30 30 30 27 0 30 -3 30
-30 0 -27 3 -30 30 -30 27 0 30 -3 30 -30 0 -27 3 -30 30 -30 27 0 30 3 30 30
0 27 3 30 30 30 27 0 30 3 30 30 0 27 3 30 30 30 27 0 30 -3 30 -30 0 -27 3
-30 30 -30 l30 0 0 -90 0 -90 30 0 30 0 0 120 0 120 60 0 60 0 0 60 0 60 90 0
90 0 0 -30z m-720 -420 l0 -90 -60 0 -60 0 0 30 c0 27 3 30 30 30 l30 0 0 60
0 60 30 0 30 0 0 -90z m1140 -300 l0 -90 -90 0 -90 0 0 90 0 90 90 0 90 0 0
-90z m240 -240 c0 -27 -3 -30 -30 -30 -27 0 -30 3 -30 30 0 27 3 30 30 30 27
0 30 -3 30 -30z"/>
<path d="M1090 1480 c0 -27 3 -30 30 -30 27 0 30 3 30 30 0 27 -3 30 -30 30
-27 0 -30 -3 -30 -30z"/>
<path d="M1090 1180 c0 -27 3 -30 30 -30 27 0 30 3 30 30 0 27 -3 30 -30 30
-27 0 -30 -3 -30 -30z"/>
<path d="M670 1000 l0 -90 -30 0 c-27 0 -30 3 -30 30 0 27 -3 30 -30 30 -27 0
-30 3 -30 30 0 27 -3 30 -30 30 -27 0 -30 -3 -30 -30 0 -27 3 -30 30 -30 27 0
30 -3 30 -30 0 -27 3 -30 30 -30 27 0 30 -3 30 -30 0 -27 -3 -30 -30 -30 -27
0 -30 -3 -30 -30 0 -27 3 -30 30 -30 27 0 30 3 30 30 0 27 3 30 30 30 27 0 30
3 30 30 0 27 3 30 30 30 l30 0 0 90 0 90 -30 0 -30 0 0 -90z"/>
<path d="M970 1060 c0 -27 3 -30 30 -30 27 0 30 3 30 30 0 27 -3 30 -30 30
-27 0 -30 -3 -30 -30z"/>
<path d="M910 940 c0 -27 3 -30 30 -30 27 0 30 3 30 30 0 27 -3 30 -30 30 -27
0 -30 -3 -30 -30z"/>
<path d="M1210 820 c0 -27 3 -30 30 -30 27 0 30 3 30 30 0 27 -3 30 -30 30
-27 0 -30 -3 -30 -30z"/>
<path d="M970 670 l0 -60 -30 0 c-27 0 -30 -3 -30 -30 0 -27 3 -30 30 -30 27
0 30 3 30 30 l0 30 60 0 60 0 0 60 0 60 -60 0 -60 0 0 -60z"/>
<path d="M1150 700 c0 -27 3 -30 30 -30 27 0 30 3 30 30 0 27 -3 30 -30 30
-27 0 -30 -3 -30 -30z"/>
<path d="M1270 700 c0 -27 3 -30 30 -30 27 0 30 3 30 30 0 27 -3 30 -30 30
-27 0 -30 -3 -30 -30z"/>
<path d="M1150 550 l0 -60 -30 0 c-27 0 -30 -3 -30 -30 0 -27 3 -30 30 -30 27
0 30 -3 30 -30 0 -27 3 -30 30 -30 27 0 30 3 30 30 0 27 3 30 30 30 l30 0 0
60 0 60 -30 0 c-27 0 -30 3 -30 30 0 27 -3 30 -30 30 l-30 0 0 -60z m60 -90
c0 -27 -3 -30 -30 -30 -27 0 -30 3 -30 30 0 27 3 30 30 30 27 0 30 -3 30 -30z"/>
<path d="M1450 520 c0 -27 3 -30 30 -30 27 0 30 3 30 30 0 27 -3 30 -30 30
-27 0 -30 -3 -30 -30z"/>
<path d="M1450 1660 l0 -210 210 0 210 0 0 210 0 210 -210 0 -210 0 0 -210z
m360 0 l0 -150 -150 0 -150 0 0 150 0 150 150 0 150 0 0 -150z"/>
<path d="M1570 1660 l0 -90 90 0 90 0 0 90 0 90 -90 0 -90 0 0 -90z"/>
<path d="M130 1360 l0 -30 60 0 60 0 0 -60 0 -60 60 0 60 0 0 30 c0 27 3 30
30 30 27 0 30 3 30 30 0 27 -3 30 -30 30 -27 0 -30 3 -30 30 0 27 -3 30 -30
30 -27 0 -30 -3 -30 -30 0 -27 -3 -30 -30 -30 -27 0 -30 3 -30 30 l0 30 -60 0
-60 0 0 -30z m240 -60 c0 -27 -3 -30 -30 -30 -27 0 -30 3 -30 30 0 27 3 30 30
30 27 0 30 -3 30 -30z"/>
<path d="M670 1300 c0 -27 3 -30 30 -30 27 0 30 3 30 30 0 27 -3 30 -30 30
-27 0 -30 -3 -30 -30z"/>
<path d="M130 1150 l0 -120 30 0 c27 0 30 -3 30 -30 0 -27 -3 -30 -30 -30 -27
0 -30 -3 -30 -30 0 -27 3 -30 30 -30 27 0 30 3 30 30 0 27 3 30 30 30 27 0 30
3 30 30 0 27 -3 30 -30 30 -27 0 -30 3 -30 30 0 27 3 30 30 30 27 0 30 3 30
30 0 27 -3 30 -30 30 l-30 0 0 60 0 60 -30 0 -30 0 0 -120z"/>
<path d="M1630 820 c0 -27 3 -30 30 -30 27 0 30 3 30 30 0 27 -3 30 -30 30
-27 0 -30 -3 -30 -30z"/>
<path d="M130 760 c0 -27 3 -30 30 -30 27 0 30 3 30 30 0 27 -3 30 -30 30 -27
0 -30 -3 -30 -30z"/>
<path d="M130 640 c0 -27 3 -30 30 -30 27 0 30 3 30 30 0 27 -3 30 -30 30 -27
0 -30 -3 -30 -30z"/>
<path d="M130 340 l0 -210 210 0 210 0 0 210 0 210 -210 0 -210 0 0 -210z
m360 0 l0 -150 -150 0 -150 0 0 150 0 150 150 0 150 0 0 -150z"/>
<path d="M250 340 l0 -90 90 0 90 0 0 90 0 90 -90 0 -90 0 0 -90z"/>
</g>
</svg>
